<svg width="566" height="60" viewBox="0 0 566 60" fill="none" xmlns="http://www.w3.org/2000/svg">
<path d="M3.504 37.336C2.992 37.112 2.576 36.808 2.256 36.424C1.968 36.008 1.824 35.528 1.824 34.984C1.824 34.44 1.968 33.976 2.256 33.592C2.576 33.176 2.992 32.856 3.504 32.632L29.136 21.544C29.968 22.664 30.384 23.784 30.384 24.904C30.384 25.672 30.176 26.344 29.76 26.92C29.344 27.496 28.752 27.944 27.984 28.264L11.136 34.984L27.936 41.704C28.672 41.992 29.232 42.456 29.616 43.096C30 43.736 30.192 44.456 30.192 45.256C30.192 46.472 29.84 47.544 29.136 48.472L3.504 37.336ZM50.7323 15.736C51.0523 15.064 51.5323 14.552 52.1723 14.2C52.8443 13.816 53.5803 13.624 54.3803 13.624C55.6923 13.624 56.8763 14.04 57.9323 14.872L41.1323 48.616C40.7803 49.288 40.2843 49.8 39.6443 50.152C39.0043 50.536 38.2843 50.728 37.4843 50.728C36.2683 50.728 35.1003 50.296 33.9803 49.432L50.7323 15.736ZM62.7896 48.472C62.0856 47.544 61.7336 46.488 61.7336 45.304C61.7336 44.472 61.9256 43.736 62.3096 43.096C62.7256 42.456 63.3016 41.992 64.0376 41.704L80.7896 34.984L63.9896 28.264C63.2216 27.944 62.6296 27.496 62.2136 26.92C61.7976 26.312 61.5896 25.624 61.5896 24.856C61.5896 23.736 61.9896 22.632 62.7896 21.544L88.4696 32.632C88.9816 32.856 89.3816 33.176 89.6696 33.592C89.9896 33.976 90.1496 34.44 90.1496 34.984C90.1496 35.528 89.9896 36.008 89.6696 36.424C89.3816 36.808 88.9816 37.112 88.4696 37.336L62.7896 48.472ZM107.129 18.328C107.129 17.496 107.433 16.808 108.041 16.264C108.649 15.688 109.417 15.4 110.345 15.4H123.161C126.617 15.4 129.289 16.312 131.177 18.136C133.097 19.96 134.057 22.52 134.057 25.816C134.057 27.704 133.673 29.304 132.905 30.616C132.137 31.896 130.969 32.92 129.401 33.688V33.832C132.217 35.08 133.625 37.448 133.625 40.936V44.68C133.625 46.216 133.081 47.4 131.993 48.232C130.905 49.032 129.305 49.432 127.193 49.432V41.224C127.193 39.528 126.857 38.28 126.185 37.48C125.513 36.68 124.489 36.28 123.113 36.28H113.465V44.68C113.465 46.248 112.921 47.432 111.833 48.232C110.777 49.032 109.209 49.432 107.129 49.432V18.328ZM122.825 30.808C124.361 30.808 125.545 30.376 126.377 29.512C127.209 28.616 127.625 27.368 127.625 25.768C127.625 22.504 126.025 20.872 122.825 20.872H113.465V30.808H122.825ZM152.299 49.432C149.675 49.432 147.275 48.92 145.099 47.896C142.923 46.84 141.195 45.416 139.915 43.624C138.667 41.832 138.043 39.88 138.043 37.768V26.584C138.043 24.472 138.667 22.536 139.915 20.776C141.195 18.984 142.923 17.576 145.099 16.552C147.275 15.496 149.675 14.968 152.299 14.968C154.923 14.968 157.323 15.496 159.499 16.552C161.707 17.576 163.435 18.984 164.683 20.776C165.963 22.536 166.603 24.472 166.603 26.584V37.768C166.603 39.88 165.963 41.832 164.683 43.624C163.435 45.416 161.707 46.84 159.499 47.896C157.323 48.92 154.923 49.432 152.299 49.432ZM152.299 43.816C154.699 43.816 156.619 43.256 158.059 42.136C159.499 40.984 160.219 39.496 160.219 37.672V26.728C160.219 24.872 159.499 23.384 158.059 22.264C156.619 21.112 154.699 20.536 152.299 20.536C149.931 20.536 148.027 21.112 146.587 22.264C145.147 23.384 144.427 24.872 144.427 26.728V37.672C144.427 39.496 145.147 40.984 146.587 42.136C148.027 43.256 149.931 43.816 152.299 43.816ZM174.47 49C173.574 49 172.806 48.728 172.166 48.184C171.558 47.608 171.254 46.904 171.254 46.072V18.328C171.254 17.496 171.558 16.808 172.166 16.264C172.774 15.688 173.542 15.4 174.47 15.4H185.126C187.974 15.4 190.486 15.944 192.662 17.032C194.87 18.12 196.566 19.656 197.75 21.64C198.966 23.592 199.574 25.832 199.574 28.36V35.944C199.574 38.472 198.966 40.728 197.75 42.712C196.534 44.696 194.822 46.248 192.614 47.368C190.438 48.456 187.942 49 185.126 49H174.47ZM184.646 43.48C187.43 43.48 189.542 42.856 190.982 41.608C192.422 40.328 193.142 38.456 193.142 35.992V28.264C193.142 25.864 192.422 24.04 190.982 22.792C189.542 21.544 187.43 20.92 184.646 20.92H177.686V43.48H184.646ZM204.395 18.328C204.395 17.496 204.699 16.808 205.307 16.264C205.915 15.688 206.683 15.4 207.611 15.4H220.427C223.883 15.4 226.555 16.312 228.443 18.136C230.363 19.96 231.323 22.52 231.323 25.816C231.323 27.704 230.939 29.304 230.171 30.616C229.403 31.896 228.235 32.92 226.667 33.688V33.832C229.483 35.08 230.891 37.448 230.891 40.936V44.68C230.891 46.216 230.347 47.4 229.259 48.232C228.171 49.032 226.571 49.432 224.459 49.432V41.224C224.459 39.528 224.123 38.28 223.451 37.48C222.779 36.68 221.755 36.28 220.379 36.28H210.731V44.68C210.731 46.248 210.187 47.432 209.099 48.232C208.043 49.032 206.475 49.432 204.395 49.432V18.328ZM220.091 30.808C221.627 30.808 222.811 30.376 223.643 29.512C224.475 28.616 224.891 27.368 224.891 25.768C224.891 22.504 223.291 20.872 220.091 20.872H210.731V30.808H220.091ZM237.464 19.768C237.464 18.264 238.024 17.096 239.144 16.264C240.264 15.4 241.848 14.968 243.896 14.968V44.632C243.896 46.168 243.336 47.352 242.216 48.184C241.096 49.016 239.512 49.432 237.464 49.432V19.768ZM264.297 49.432C261.449 49.432 258.905 48.888 256.665 47.8C254.457 46.712 252.729 45.192 251.481 43.24C250.233 41.288 249.609 39.064 249.609 36.568V27.736C249.609 25.24 250.217 23.032 251.433 21.112C252.681 19.16 254.393 17.656 256.569 16.6C258.745 15.512 261.241 14.968 264.057 14.968C266.873 14.968 269.369 15.4 271.545 16.264C273.753 17.096 275.465 18.264 276.681 19.768C277.897 21.272 278.505 23 278.505 24.952C278.505 26.136 278.105 27.064 277.305 27.736C276.537 28.408 275.497 28.744 274.185 28.744C273.545 28.744 272.841 28.648 272.073 28.456C272.137 27.688 272.169 26.936 272.169 26.2C272.169 24.504 271.417 23.128 269.913 22.072C268.409 21.016 266.457 20.488 264.057 20.488C261.689 20.488 259.753 21.16 258.249 22.504C256.777 23.848 256.041 25.592 256.041 27.736V36.568C256.041 38.712 256.809 40.472 258.345 41.848C259.881 43.224 261.865 43.912 264.297 43.912C266.665 43.912 268.585 43.368 270.057 42.28C271.561 41.16 272.313 39.72 272.313 37.96V36.472H268.185C266.969 36.472 265.977 36.008 265.209 35.08C264.441 34.12 264.057 32.888 264.057 31.384H275.721C276.617 31.384 277.337 31.656 277.881 32.2C278.425 32.744 278.697 33.464 278.697 34.36V38.104C278.697 40.312 278.089 42.28 276.873 44.008C275.657 45.704 273.945 47.032 271.737 47.992C269.561 48.952 267.081 49.432 264.297 49.432ZM296.674 49.432C294.05 49.432 291.65 48.92 289.474 47.896C287.298 46.84 285.57 45.416 284.29 43.624C283.042 41.832 282.418 39.88 282.418 37.768V26.584C282.418 24.472 283.042 22.536 284.29 20.776C285.57 18.984 287.298 17.576 289.474 16.552C291.65 15.496 294.05 14.968 296.674 14.968C299.298 14.968 301.698 15.496 303.874 16.552C306.082 17.576 307.81 18.984 309.058 20.776C310.338 22.536 310.978 24.472 310.978 26.584V37.768C310.978 39.88 310.338 41.832 309.058 43.624C307.81 45.416 306.082 46.84 303.874 47.896C301.698 48.92 299.298 49.432 296.674 49.432ZM296.674 43.816C299.074 43.816 300.994 43.256 302.434 42.136C303.874 40.984 304.594 39.496 304.594 37.672V26.728C304.594 24.872 303.874 23.384 302.434 22.264C300.994 21.112 299.074 20.536 296.674 20.536C294.306 20.536 292.402 21.112 290.962 22.264C289.522 23.384 288.802 24.872 288.802 26.728V37.672C288.802 39.496 289.522 40.984 290.962 42.136C292.402 43.256 294.306 43.816 296.674 43.816ZM341.828 49.432C338.98 49.432 336.436 48.888 334.196 47.8C331.988 46.712 330.26 45.192 329.012 43.24C327.764 41.288 327.14 39.064 327.14 36.568V27.736C327.14 25.24 327.748 23.032 328.964 21.112C330.212 19.16 331.924 17.656 334.1 16.6C336.276 15.512 338.772 14.968 341.588 14.968C344.404 14.968 346.9 15.4 349.076 16.264C351.284 17.096 352.996 18.264 354.212 19.768C355.428 21.272 356.036 23 356.036 24.952C356.036 26.136 355.636 27.064 354.836 27.736C354.068 28.408 353.028 28.744 351.716 28.744C351.076 28.744 350.372 28.648 349.604 28.456C349.668 27.688 349.7 26.936 349.7 26.2C349.7 24.504 348.948 23.128 347.444 22.072C345.94 21.016 343.988 20.488 341.588 20.488C339.22 20.488 337.284 21.16 335.78 22.504C334.308 23.848 333.572 25.592 333.572 27.736V36.568C333.572 38.712 334.34 40.472 335.876 41.848C337.412 43.224 339.396 43.912 341.828 43.912C344.196 43.912 346.116 43.368 347.588 42.28C349.092 41.16 349.844 39.72 349.844 37.96V36.472H345.716C344.5 36.472 343.508 36.008 342.74 35.08C341.972 34.12 341.588 32.888 341.588 31.384H353.252C354.148 31.384 354.868 31.656 355.412 32.2C355.956 32.744 356.228 33.464 356.228 34.36V38.104C356.228 40.312 355.62 42.28 354.404 44.008C353.188 45.704 351.476 47.032 349.268 47.992C347.092 48.952 344.612 49.432 341.828 49.432ZM364.365 49.432C362.989 49.272 361.901 48.792 361.101 47.992C360.333 47.192 359.949 46.184 359.949 44.968C359.949 44.04 360.173 43.08 360.621 42.088L371.613 17.08C372.221 15.672 373.277 14.968 374.781 14.968C376.253 14.968 377.293 15.672 377.901 17.08L388.893 42.088C389.341 43.144 389.565 44.104 389.565 44.968C389.565 46.184 389.165 47.192 388.365 47.992C387.597 48.792 386.509 49.272 385.101 49.432L381.069 40.312H368.445L364.365 49.432ZM379.101 34.84L373.821 21.688L373.245 21.928L374.397 24.904L370.365 34.84H379.101ZM397.454 49C396.558 49 395.79 48.728 395.15 48.184C394.542 47.608 394.238 46.904 394.238 46.072V18.328C394.238 17.496 394.542 16.808 395.15 16.264C395.758 15.688 396.526 15.4 397.454 15.4H408.11C410.958 15.4 413.47 15.944 415.646 17.032C417.854 18.12 419.55 19.656 420.734 21.64C421.95 23.592 422.558 25.832 422.558 28.36V35.944C422.558 38.472 421.95 40.728 420.734 42.712C419.518 44.696 417.806 46.248 415.598 47.368C413.422 48.456 410.926 49 408.11 49H397.454ZM407.63 43.48C410.414 43.48 412.526 42.856 413.966 41.608C415.406 40.328 416.126 38.456 416.126 35.992V28.264C416.126 25.864 415.406 24.04 413.966 22.792C412.526 21.544 410.414 20.92 407.63 20.92H400.67V43.48H407.63ZM440.627 49.432C438.003 49.432 435.603 48.92 433.427 47.896C431.251 46.84 429.523 45.416 428.243 43.624C426.995 41.832 426.371 39.88 426.371 37.768V26.584C426.371 24.472 426.995 22.536 428.243 20.776C429.523 18.984 431.251 17.576 433.427 16.552C435.603 15.496 438.003 14.968 440.627 14.968C443.251 14.968 445.651 15.496 447.827 16.552C450.035 17.576 451.763 18.984 453.011 20.776C454.291 22.536 454.931 24.472 454.931 26.584V37.768C454.931 39.88 454.291 41.832 453.011 43.624C451.763 45.416 450.035 46.84 447.827 47.896C445.651 48.92 443.251 49.432 440.627 49.432ZM440.627 43.816C443.027 43.816 444.947 43.256 446.387 42.136C447.827 40.984 448.547 39.496 448.547 37.672V26.728C448.547 24.872 447.827 23.384 446.387 22.264C444.947 21.112 443.027 20.536 440.627 20.536C438.259 20.536 436.355 21.112 434.915 22.264C433.475 23.384 432.755 24.872 432.755 26.728V37.672C432.755 39.496 433.475 40.984 434.915 42.136C436.355 43.256 438.259 43.816 440.627 43.816ZM459.582 20.056C459.582 18.488 460.11 17.256 461.166 16.36C462.222 15.432 463.646 14.968 465.438 14.968L481.662 40.312L482.142 39.928L480.174 36.664V14.968C482.254 14.968 483.822 15.368 484.878 16.168C485.966 16.968 486.51 18.152 486.51 19.72V45.064C486.51 46.248 485.998 47.272 484.974 48.136C483.982 49 482.83 49.432 481.518 49.432L464.43 22.696L463.95 23.128L465.918 26.392V44.68C465.918 46.248 465.374 47.432 464.286 48.232C463.23 49.032 461.662 49.432 459.582 49.432V20.056ZM505.313 49.432C502.433 49.432 499.921 49.08 497.777 48.376C495.633 47.672 493.985 46.68 492.833 45.4C491.713 44.088 491.153 42.568 491.153 40.84C491.153 38.216 492.929 36.904 496.481 36.904C496.609 39.336 497.425 41.176 498.929 42.424C500.465 43.672 502.609 44.296 505.361 44.296C507.633 44.296 509.393 43.912 510.641 43.144C511.889 42.344 512.513 41.24 512.513 39.832C512.513 38.904 512.273 38.152 511.793 37.576C511.313 36.968 510.497 36.44 509.345 35.992C508.193 35.512 506.513 35.032 504.305 34.552C501.169 33.816 498.689 33 496.865 32.104C495.073 31.208 493.777 30.136 492.977 28.888C492.177 27.608 491.777 26.024 491.777 24.136C491.777 22.312 492.305 20.712 493.361 19.336C494.449 17.96 495.969 16.888 497.921 16.12C499.905 15.352 502.177 14.968 504.737 14.968C507.201 14.968 509.393 15.304 511.313 15.976C513.265 16.616 514.785 17.528 515.873 18.712C516.993 19.896 517.553 21.256 517.553 22.792C517.553 25.16 515.841 26.392 512.417 26.488C512.225 24.28 511.521 22.664 510.305 21.64C509.089 20.616 507.233 20.104 504.737 20.104C502.593 20.104 500.945 20.456 499.793 21.16C498.641 21.864 498.065 22.856 498.065 24.136C498.065 25.032 498.289 25.784 498.737 26.392C499.185 26.968 499.937 27.48 500.993 27.928C502.049 28.344 503.553 28.776 505.505 29.224C508.801 29.96 511.409 30.792 513.329 31.72C515.249 32.616 516.641 33.72 517.505 35.032C518.369 36.312 518.801 37.896 518.801 39.784C518.801 41.736 518.241 43.448 517.121 44.92C516.033 46.36 514.465 47.48 512.417 48.28C510.401 49.048 508.033 49.432 505.313 49.432ZM523.426 19.816C523.426 18.248 523.986 17.048 525.106 16.216C526.226 15.384 527.81 14.968 529.858 14.968V30.376L545.938 14.968C546.738 15.544 547.378 16.2 547.858 16.936C548.37 17.64 548.626 18.264 548.626 18.808C548.626 19.288 548.45 19.768 548.098 20.248C547.778 20.696 547.282 21.24 546.61 21.88L537.01 30.952L550.21 47.416C549.218 48.76 547.922 49.432 546.322 49.432C544.786 49.432 543.554 48.856 542.626 47.704L532.594 34.984L529.858 37.672V44.872C529.858 46.44 529.346 47.592 528.322 48.328C527.298 49.064 525.666 49.432 523.426 49.432V19.816ZM555.792 19.768C555.792 18.264 556.352 17.096 557.472 16.264C558.592 15.4 560.176 14.968 562.224 14.968V44.632C562.224 46.168 561.664 47.352 560.544 48.184C559.424 49.016 557.84 49.432 555.792 49.432V19.768Z" fill="#F1FFFC"/>
</svg>
